<svg width="80" height="80" viewBox="0 0 80 80" fill="none" xmlns="http://www.w3.org/2000/svg">
<path d="M7.99951 29.9995C7.99951 38.8739 13.254 46.5211 20.8216 49.9995H7.99951C7.99951 62.1498 17.8492 71.9995 29.9995 71.9995C38.8739 71.9995 46.5211 66.745 49.9995 59.1775V71.9995C62.1498 71.9995 71.9995 62.1498 71.9995 49.9995C71.9995 41.1251 66.745 33.478 59.1775 29.9995H71.9995C71.9995 17.8492 62.1498 7.99951 49.9995 7.99951C41.1251 7.99951 33.478 13.254 29.9995 20.8216V7.99951C17.8492 7.99951 7.99951 17.8492 7.99951 29.9995Z" fill="#404040"/>
<path d="M49.9995 39.9996C49.9995 45.5225 45.5224 49.9996 39.9995 49.9996C34.4767 49.9996 29.9995 45.5225 29.9995 39.9996C29.9995 34.4768 34.4767 29.9996 39.9995 29.9996C45.5224 29.9996 49.9995 34.4768 49.9995 39.9996Z" fill="#FFD11A"/>
</svg>
